<svg xmlns="http://www.w3.org/2000/svg" width="887.772" height="772.831" viewBox="0 0 887.772 772.831"><defs><style>.a{opacity:0.56;}.b{fill:#e6e6e6;}.c{fill:#d8d8d8;}.d{fill:#3f3d56;}.e{fill:#0f7398;}.f{fill:#fff;}</style></defs><g transform="translate(-516 -154)"><g class="a" transform="translate(516 154)"><path class="b" d="M887.772,763.25l-635.509,9.581L0,728.121H393.817Z"/><path class="c" d="M101.66,0A101.66,101.66,0,1,1,0,101.66,101.66,101.66,0,0,1,101.66,0Z" transform="translate(630.162 0)"/><path class="d" d="M335.954,797.02s1.487-31.159,31.971-27.537" transform="translate(-156.114 -63.585)"/><circle class="e" cx="15.257" cy="15.257" r="15.257" transform="translate(155.97 673.269)"/><rect class="d" width="4.307" height="30.147" transform="translate(168.744 714.218)"/><path class="d" d="M838.4,802.342s1.487-31.159,31.971-27.537" transform="translate(-156.114 -63.585)"/><circle class="e" cx="15.257" cy="15.257" r="15.257" transform="translate(658.416 678.592)"/><rect class="d" width="4.307" height="30.147" transform="translate(671.191 719.541)"/><path class="d" d="M911.851,807.665s1.487-31.159,31.971-27.537" transform="translate(-156.114 -63.585)"/><circle class="e" cx="15.257" cy="15.257" r="15.257" transform="translate(731.867 683.914)"/><rect class="d" width="4.307" height="30.147" transform="translate(744.642 724.863)"/><path class="d" d="M456.243,782.116s1.487-31.159,31.971-27.537" transform="translate(-156.114 -63.585)"/><circle class="e" cx="15.257" cy="15.257" r="15.257" transform="translate(276.259 658.366)"/><rect class="d" width="4.307" height="30.147" transform="translate(289.033 699.315)"/><path class="d" d="M229.5,787.439s1.487-31.159,31.971-27.537" transform="translate(-156.114 -63.585)"/><circle class="e" cx="15.257" cy="15.257" r="15.257" transform="translate(49.519 663.689)"/><rect class="d" width="4.307" height="30.147" transform="translate(62.294 704.638)"/><circle class="d" cx="166.228" cy="166.228" r="166.228" transform="translate(276.049 337.254)"/><path class="f" d="M493.74,580.41a43.988,43.988,0,0,1,67.519,0,48.891,48.891,0,1,0-67.519,0Z" transform="translate(-156.114 -63.585)"/><path class="f" d="M625.745,580.41a43.988,43.988,0,0,1,67.519,0,48.891,48.891,0,1,0-67.519,0Z" transform="translate(-156.114 -63.585)"/><circle class="d" cx="16.818" cy="16.818" r="16.818" transform="translate(337.889 447.996)"/><circle class="d" cx="16.818" cy="16.818" r="16.818" transform="translate(469.889 447.996)"/><path class="f" d="M434.943,505.926l-14.667,63.558,24.445-24.445Z"/><path class="d" d="M510.307,750.38,493.655,736.4l.388,13.976h-5.172l-.413-14.778L465.975,750.38h-9.412l31.727-20.854-1.229-43.789-.918-33.071,5.159-.142.931,33.213,1.228,43.75,24.887,20.893Z"/><path class="d" d="M432.076,750.38,415.424,736.4l.388,13.976h-5.158L410.24,735.6,387.757,750.38h-9.412l31.714-20.854-1.228-43.789-.918-33.071,5.171-.142.931,33.213,1.215,43.75,24.888,20.893Z"/><path class="d" d="M600.835,388.616c-4.561,0-8.585,3.543-11.275,8.985-2.371-8.183-7.353-13.874-13.17-13.874a8.847,8.847,0,0,0-1.174.2c-2.236-8.737-7.434-14.864-13.493-14.864-8.1,0-14.667,10.945-14.667,24.445s6.567,24.445,14.667,24.445a8.847,8.847,0,0,0,1.174-.2c2.236,8.737,7.434,14.864,13.493,14.864,4.561,0,8.585-3.543,11.275-8.985,2.371,8.183,7.353,13.874,13.17,13.874,8.1,0,14.667-10.945,14.667-24.445S608.936,388.616,600.835,388.616Z" transform="translate(-156.114 -63.585)"/><path class="e" d="M393.474,507.833h0a48.891,48.891,0,0,1,48.891,48.891v24.445a48.891,48.891,0,0,1-48.891,48.891h0Z" transform="translate(679.724 1074.308) rotate(180)"/><path class="e" d="M598.3,444.248h0a48.891,48.891,0,0,1,48.891,48.891v24.445A48.89,48.89,0,0,1,598.3,566.475h0V444.248Z"/><path class="e" d="M780.037,560.565h-7.758c0-98.377-80.036-178.414-178.414-178.414S415.451,462.187,415.451,560.565H407.7c0-102.655,83.516-186.171,186.171-186.171S780.037,457.91,780.037,560.565Z" transform="translate(-156.114 -63.585)"/><path class="d" d="M131.69,368Z"/><path class="d" d="M327.661,411.058v0l-3.644-1.518-15.376-6.5-5.512-2.33-.423,1.068h0l-7.4,18.694,20.837,8.819.109.1-1.4,3.311a5.863,5.863,0,0,0-.49.955c-.984,2.484.874,4.954,2.63,5.649s3.977-.754,4.961-3.237c.97-2.45.022-5.562-1.689-6.314v0l-3.644-1.518-12.467-4.846,7.123-17.985-1.056-.418-7.126,17.992-1.542-.6,7.154-18.062.188.08,14.654,6.2.109.1-1.4,3.311a5.852,5.852,0,0,0-.49.955c-.984,2.484.874,4.954,2.63,5.649s3.977-.754,4.961-3.237C330.321,414.922,329.372,411.81,327.661,411.058Z" transform="translate(-156.114 -63.585)"/><path class="d" d="M399.781,456.952c-7.564-4.325-6.05-13.815-6.05-13.815-.19-6.165-5.284-5.293-5.284-5.293l-1.854.423a5.629,5.629,0,0,0-2.757-.51l-2.82.475c6.421,1.509,5.894,6.881,5.894,6.881l.9,6.281-16.826-6.788,1.932-4.555a8.13,8.13,0,0,0,.68-1.327c1.366-3.449-1.214-6.881-3.653-7.846s-5.524,1.047-6.89,4.5c-1.347,3.4-.03,7.725,2.346,8.769l0,0,5.062,2.108.038-.119Zm-8.544-11.036.54,6.012a13.866,13.866,0,0,1-2.526-9.207,5.823,5.823,0,0,0-1.127-3.225,6.831,6.831,0,0,1,3.114,6.42Z" transform="translate(-156.114 -63.585)"/><path class="d" d="M271.433,368.04l0,0-5.062-2.108L245.219,357.7l5.339-4.75a6.744,6.744,0,0,1,9.217-1.51l-1.657-2.463s-3.115-4.124-7.475.239c0,0-5.395,7.953-13.869,5.926l28.94,12.249.152.138-1.95,4.6a8.123,8.123,0,0,0-.68,1.327c-1.366,3.449,1.214,6.88,3.653,7.846s5.524-1.047,6.89-4.5C275.127,373.407,273.81,369.085,271.433,368.04Z" transform="translate(-156.114 -63.585)"/><path class="d" d="M348.88,341.126l-1.95,4.6a8.131,8.131,0,0,0-.68,1.327c-1.366,3.449,1.214,6.88,3.653,7.846s5.524-1.047,6.89-4.5c1.348-3.4.031-7.725-2.346-8.769l0,0-5.062-2.108-17.315-6.731,9.893-24.98-1.466-.581-9.9,24.989-2.141-.832L338.4,306.3l.262.111,20.353,8.614.152.138-1.95,4.6a8.14,8.14,0,0,0-.68,1.327c-1.366,3.449,1.214,6.881,3.653,7.847s5.524-1.047,6.89-4.5c1.348-3.4.031-7.725-2.346-8.769l0,0-5.062-2.108-20.685-8.744h0l-.671-.284-7.655-3.236-10.871,27.447,28.94,12.249ZM330.071,302.775Z" transform="translate(-156.114 -63.585)"/><path class="d" d="M257.167,200.556l0-.007-8.713-3.629-36.416-14.156,9.191-8.177s6.114-8.483,15.866-2.6l-2.852-4.239s-5.362-7.1-12.868.412c0,0-9.287,13.691-23.874,10.2l49.819,21.086.262.237-3.357,7.916a14.006,14.006,0,0,0-1.171,2.285c-2.352,5.938,2.09,11.844,6.289,13.507s9.509-1.8,11.861-7.74C263.526,209.795,261.259,202.354,257.167,200.556Z" transform="translate(-156.114 -63.585)"/><path class="d" d="M283.907,319.47c-18.085-10.34-14.466-33.03-14.466-33.03-.455-14.741-12.634-12.654-12.634-12.654l-4.432,1.011a13.458,13.458,0,0,0-6.591-1.219l-6.743,1.135c15.353,3.607,14.092,16.451,14.092,16.451l2.151,15.017-40.229-16.229,4.619-10.891a19.452,19.452,0,0,0,1.627-3.173c3.266-8.247-2.9-16.451-8.735-18.76s-13.208,2.5-16.474,10.751c-3.222,8.135-.073,18.469,5.61,20.966l0,.01,12.1,5.04.09-.285Zm-20.429-26.386,1.295,14.424c-7.6-10.083-6.043-22.062-6.043-22.062a13.925,13.925,0,0,0-2.694-7.711c8.726,5.222,7.443,15.35,7.443,15.35Z" transform="translate(-156.114 -63.585)"/></g></g></svg>